<?xml version="1.0" encoding="utf-8"?>
<!-- Generator: Adobe Illustrator 16.0.0, SVG Export Plug-In . SVG Version: 6.00 Build 0)  -->
<!DOCTYPE svg PUBLIC "-//W3C//DTD SVG 1.1//EN" "http://www.w3.org/Graphics/SVG/1.1/DTD/svg11.dtd">
<svg version="1.1" id="Layer_1" xmlns="http://www.w3.org/2000/svg" xmlns:xlink="http://www.w3.org/1999/xlink" x="0px" y="0px"
	 width="612px" height="792px" viewBox="0 0 612 792" enable-background="new 0 0 612 792" xml:space="preserve">
<path fill="#F9ED32" d="M80.338,111.889c-25.814-0.452-44.387-11.775-44.387-11.775s14.041,42.12,18.573,66.124
	c4.528,24.003-3.624,139.493,31.702,188.403c35.326,48.915,81.52,62.955,107.336,62.955c25.813,0,57.97-13.588,91.031-59.783
	c33.063-46.195,32.157-150.363,31.705-181.613c-0.452-31.25,23.546-74.728,23.546-74.728s-23.094,14.493-46.646,14.493
	S186.767,31.272,186.767,31.272S106.151,112.341,80.338,111.889z"/>
<path fill="#00A651" d="M185.825,123.55l51.889,33.32c0,0,50.468,25.104,55.449,109.796c4.98,84.695-64.311,113.68-107.338,114.133
	c-43.026,0.452-110.053-37.589-106.884-115.038c3.17-77.446,54.305-105.03,54.305-105.03L185.825,123.55z"/>
<path fill="#FFF200" d="M122.943,190.693C106.64,212.432,96.8,248.79,99.393,250.476c2.592,1.687,9.852,2.49,11.775,0
	c1.923-2.49,7.7-35.328,22.192-53.443c14.494-18.115,53.893-46.194,53.893-46.194s41.667,30.797,54.347,44.836
	c12.685,14.039,18.12,52.537,21.289,54.801c3.168,2.264,11.32,2.264,13.588,0c2.261-2.264-6.795-34.874-24.005-58.877
	c-17.208-24.003-66.123-56.159-66.123-56.159S139.248,168.954,122.943,190.693z"/>
<path fill="#FFF200" d="M187.11,350.436c20.639,0.452,51.196-20.705,57.088-20.705c5.884,0,5.558,1.816,6.01,7.248
	c0.452,5.433-34.587,24.813-60.14,24.813s-68.031-22.093-68.031-26.625c0-4.532,3.172-6.34,9.513-5.888
	C137.891,329.731,166.469,349.983,187.11,350.436z"/>
<path fill="#FFF200" d="M190.404,193.808c0,0,46.457,27.23,46.004,71.161c-0.452,43.93-27.697,58.423-46.004,58.423
	c-18.308,0-48.201-10.417-50.917-57.516C136.771,218.772,190.404,193.808,190.404,193.808z"/>
<path fill="#00A651" d="M446.838,426.379l51.889,33.32c0,0,50.468,25.104,55.448,109.796c4.98,84.695-64.311,113.68-107.337,114.133
	c-43.026,0.452-110.054-37.59-106.885-115.037c3.171-77.446,54.305-105.03,54.305-105.03L446.838,426.379z"/>
</svg>
