<?xml version="1.0" encoding="utf-8"?>
<!-- Generator: Adobe Illustrator 16.0.0, SVG Export Plug-In . SVG Version: 6.00 Build 0)  -->
<!DOCTYPE svg PUBLIC "-//W3C//DTD SVG 1.1//EN" "http://www.w3.org/Graphics/SVG/1.1/DTD/svg11.dtd">
<svg version="1.1" id="Layer_1" xmlns="http://www.w3.org/2000/svg" xmlns:xlink="http://www.w3.org/1999/xlink" x="0px" y="0px"
	 width="612px" height="792px" viewBox="0 0 612 792" enable-background="new 0 0 612 792" xml:space="preserve">
<path fill="#00A651" d="M307.489,358.577c1.85,0,15.91,16.157,15.91,16.157s-3.207,2.96-3.207,6.907s3.013,9.95,9.894,9.95
	s7.867-0.33,9.224-5.757s0.371-5.303,2.344-6.907s13.813-3.453,14.677-2.96s-6.166,9.126-9.743,21.091
	c-3.577,11.963-2.468,17.144-3.947,18.254c-1.479,1.109-10.976-6.168-35.15-6.168s-34.534,6.537-36.015,6.168
	c-1.48-0.371-0.74-4.317-4.563-18.871s-11.717-19.857-11.224-21.337s17.986,3.831,18.501,5.303s-0.37,3.331,0.863,6.167
	s2.22,4.44,8.88,4.44s9.867-2.836,9.867-6.29s-2.097-9.497-2.097-9.497S305.64,358.577,307.489,358.577z"/>
<path fill="#00A651" d="M306.749,413.215c10.36-0.123,20.597,1.233,21.337,1.974s2.098,16.28-20.597,16.157
	s-21.091-15.787-21.091-15.787"/>
</svg>
