<?xml version="1.0" encoding="utf-8"?>
<!-- Generator: Adobe Illustrator 16.0.0, SVG Export Plug-In . SVG Version: 6.00 Build 0)  -->
<!DOCTYPE svg PUBLIC "-//W3C//DTD SVG 1.1//EN" "http://www.w3.org/Graphics/SVG/1.1/DTD/svg11.dtd">
<svg version="1.1" id="Layer_1" xmlns="http://www.w3.org/2000/svg" xmlns:xlink="http://www.w3.org/1999/xlink" x="0px" y="0px"
	 width="612px" height="792px" viewBox="0 0 612 792" enable-background="new 0 0 612 792" xml:space="preserve">
<path fill="#F9ED32" d="M305.125,388.708c6.875,0,15-9.875,16.25-14.625s-0.25-11.75-0.25-11.75s3.59,3.559,3.59,10.529
	s-10.34,20.221-19.59,19.971s-15.625-9.75-18.875-16.375s1.625-13.375,1.625-13.375s-1.375,6.875,0.375,11.375
	S298.25,388.708,305.125,388.708z"/>
<path fill="#F9ED32" d="M306.001,392.458l-0.126,5.167c0,0,4.749,1.916,7,0c2.251-1.917,0.999-5.792,1.25-6.125s1.583-0.458,2,0
	s0.208,2.334,0.125,3.854s-0.583,3.146-2.166,4.146s-7.583,1.042-7.583,1.042s2.498,6.041,1.999,6.583s-7.207,0.417-7.624,0.084
	c-0.417-0.334,1.916-6.667,1.916-6.667s-5.96-0.375-7.334-1.375s-1.854-3.38-1.833-4.542s-0.126-2.417,0.625-3.125
	s1.458-0.458,1.75,0s-1.001,4.75,0.625,6s6.375,0,6.375,0l0.834-5L306.001,392.458z"/>
<rect x="297.501" y="403.5" fill="#F9ED32" width="1.416" height="6.584"/>
<rect x="293.624" y="401.416" fill="#F9ED32" width="1.377" height="6.918"/>
<rect x="311.001" y="404.37" fill="#F9ED32" width="1.416" height="6.25"/>
<rect x="314.751" y="402.584" fill="#F9ED32" width="1.333" height="6.916"/>
<path fill="#F9ED32" d="M283.334,379.25c0,0,2.001,3.583,3.917,6.333s6.08,3.333,6.373,4.333s-2.123,4.083-2.79,4.583
	s-0.5-1.25-3.5-5.167S283.334,379.25,283.334,379.25z"/>
<path fill="#F9ED32" d="M327.232,378.333c0,0-2.001,3.583-3.917,6.333s-6.08,3.333-6.373,4.333s2.123,4.083,2.79,4.583
	s0.5-1.25,3.5-5.167S327.232,378.333,327.232,378.333z"/>
<path fill="#F9ED32" d="M290.391,394.75c-0.25,1.167,1.083,4,2.583,5.333s6.667,3,6.667,3s-2.567-1.109-5.438-3.75
	c-2.871-2.641-2.814-4.892-2.508-6.279S290.641,393.583,290.391,394.75z"/>
<path fill="#F9ED32" d="M320.694,394.75c0.25,1.167-1.083,4-2.583,5.333s-6.667,3-6.667,3s2.567-1.109,5.438-3.75
	c2.871-2.641,2.814-4.892,2.508-6.279S320.444,393.583,320.694,394.75z"/>
<polygon fill="#F9ED32" points="304.924,428.668 302.167,424.5 303.751,421.584 304.001,404.875 305.917,404.875 305.917,421.75 
	308.063,424.623 "/>
<path fill="#F9ED32" d="M272.276,389.417c0,0,7.584-2.334,11.167-0.667s6.917,10.526,6.917,10.526s-4.835-7.025-7.876-8.525
	S272.276,389.417,272.276,389.417z"/>
<path fill="#F9ED32" d="M338.809,389.417c0,0-7.584-2.334-11.167-0.667s-6.917,10.526-6.917,10.526s4.835-7.025,7.876-8.525
	S338.809,389.417,338.809,389.417z"/>
</svg>
