<?xml version="1.0" encoding="utf-8"?>
<!-- Generator: Adobe Illustrator 16.0.0, SVG Export Plug-In . SVG Version: 6.00 Build 0)  -->
<!DOCTYPE svg PUBLIC "-//W3C//DTD SVG 1.1//EN" "http://www.w3.org/Graphics/SVG/1.1/DTD/svg11.dtd">
<svg version="1.1" id="Layer_1" xmlns="http://www.w3.org/2000/svg" xmlns:xlink="http://www.w3.org/1999/xlink" x="0px" y="0px"
	 width="612px" height="792px" viewBox="0 0 612 792" enable-background="new 0 0 612 792" xml:space="preserve">
<path fill="#27AAE1" d="M314.663,373.241c0,0-6.912,5.339-8.247,8.818s-0.905,4.337,0.572,4.48c1.478,0.143,2.956,0.286,3.289-1.334
	c0.334-1.621-0.961-3.099-0.961-3.099s1.676-0.381,2.248,0.62s0.668,2.409,0.238,3.439s-3.098,4.616-1.525,3.663
	c1.573-0.954,1.717-0.334,2.813-2.431s-0.906-5.863-0.906-5.863s1.432-0.095,2.479,1.764s0.452,3.966-0.19,4.767
	c-0.644,0.801-2.766,3.766-2.766,3.766s4.052,0.331,6.864,1.595s5.72,5.936,5.72,5.936s-2.24-2.765-6.244-4.29
	s-6.768-0.572-6.768-0.572s-1.573,1.239-1.145,2.479c0.429,1.24,2.193,2.812,3.385,1.763s0.381-2.812,0.381-2.812
	s1.621,0.953,1.453,2.145c-0.166,1.192-1.502,2.505-3.17,2.61c-1.668,0.107-2.717-1.275-3.622-1.085s-1.478,0.312-1.478,1.085
	s3.813,2.109,5.863,1.728c2.049-0.382,3.098-2.907,3.098-2.907s0.762,1.203-0.286,2.556s-0.857,0.876-3.241,1.21
	c-2.383,0.333-5.624-1.145-5.624-1.145s0.905,6.006,0.238,8.246c-0.667,2.24-5.075,7.389-5.075,7.389s3.71-6.627,3.129-10.011
	s-1.773-5.72-2.917-5.624s-1.907,0.286-2.24,1.764s2.028,3.479,2.028,3.479s-2.218-0.524-3.124-1.478s-0.667-5.053-1.287-4.861
	c-0.62,0.189-2.288,2.621-2.049,3.86s2.446,3.671,2.446,3.671s-3.447-1.098-4.209-2.574c-0.763-1.479,1.287-5.195,1.287-5.195
	s-0.096-0.451-1.382-0.107c-1.287,0.346-1.621,1.488-3.003,1.775c-1.382,0.285-3.861-0.62-3.861-0.62s2.049-0.144,4.242-1.62
	c2.193-1.479,2.86-2.002,2.813-3.623c-0.048-1.621,0.191-2.574-1.001-2.669s-2.001-0.596-2.908,0.858s-1.43,2.956-1.43,2.956
	s-0.619-1.479,0.858-3.576s3.146-1.621,3.146-1.621s-1.048-1.335-2.765-1.001s-3.289,2.717-3.289,2.717s1.239-3.718,2.431-4.576
	s4.1-0.286,4.1-0.286s-2.574-1.334-3.623-3.575s-1.907-7.913-1.907-7.913s1.906,5.195,3.718,6.959s4.862,2.574,5.577,1.764
	s1.478-1.621,0.095-3.003s-3.003-1.382-3.003-1.382s0.333-0.429,1.716-0.477s1.852-0.257,2.622,0.62s2.765,3.146,2.765,3.146
	s0.429-3.527-1.334-4.767s-4.338-1.621-4.338-1.621s3.575-1.716,5.815-0.095s2.813,5.863,2.813,5.863s0.81-4.528,2.812-6.721
	S314.663,373.241,314.663,373.241z M301.962,387.128c-3.478,0-6.298,2.82-6.298,6.298s2.82,6.298,6.298,6.298
	s6.297-2.82,6.297-6.298S305.44,387.128,301.962,387.128z"/>
<path fill="#00A651" d="M307.696,393.426c0,3.167-2.567,5.734-5.734,5.734s-5.734-2.567-5.734-5.734s2.567-5.734,5.734-5.734
	S307.696,390.259,307.696,393.426z M301.962,388.452c-2.747,0-4.975,2.228-4.975,4.975s2.228,4.974,4.975,4.974
	s4.975-2.227,4.975-4.974S304.709,388.452,301.962,388.452z"/>
</svg>
